<svg width="7" height="7" viewBox="0 0 7 7" fill="none" xmlns="http://www.w3.org/2000/svg">
<path fill-rule="evenodd" clip-rule="evenodd" d="M1.85571 0.0189448C2.19251 0.00350766 2.29987 0 3.15747 0C4.01524 0 4.12242 0.00368275 4.45904 0.0189448C4.79531 0.0342069 5.02494 0.0877087 5.22578 0.165767C5.43644 0.24508 5.62727 0.369349 5.785 0.52993C5.9456 0.687639 6.06989 0.878483 6.14917 1.08915C6.22722 1.29 6.28055 1.51962 6.29599 1.85571C6.31144 2.19251 6.31494 2.29987 6.31494 3.15747C6.31494 4.01507 6.31126 4.12242 6.29599 4.45924C6.28072 4.79531 6.22722 5.02494 6.14917 5.22578C6.06848 5.43332 5.96041 5.60959 5.785 5.785C5.6273 5.9456 5.43644 6.06989 5.22578 6.14917C5.02494 6.22722 4.79531 6.28055 4.45924 6.29599C4.12242 6.31144 4.01507 6.31494 3.15747 6.31494C2.29987 6.31494 2.19251 6.31126 1.85571 6.29599C1.51962 6.28072 1.29 6.22722 1.08915 6.14917C0.881634 6.06848 0.705344 5.96041 0.52993 5.785C0.369321 5.6273 0.245043 5.43644 0.165767 5.22578C0.0877087 5.02494 0.034382 4.79531 0.0189448 4.45924C0.00350766 4.12242 0 4.01524 0 3.15747C0 2.29969 0.00368275 2.19251 0.0189448 1.85589C0.0342069 1.51962 0.0877087 1.29 0.165767 1.08915C0.24508 0.878497 0.369349 0.687662 0.52993 0.52993C0.687636 0.369321 0.87848 0.245043 1.08915 0.165767C1.29 0.0877087 1.51962 0.034382 1.85571 0.0189448ZM4.43343 0.587289C4.10049 0.572202 4.00051 0.56887 3.15747 0.56887C2.31442 0.56887 2.21444 0.572202 1.8815 0.587289C1.57365 0.601323 1.40648 0.652718 1.29526 0.696047C1.14792 0.753231 1.04267 0.821642 0.932154 0.932154C0.82182 1.04267 0.753231 1.14792 0.696047 1.29526C0.652718 1.40648 0.601323 1.57365 0.587289 1.8815C0.572202 2.21444 0.56887 2.31442 0.56887 3.15747C0.56887 4.00051 0.572202 4.10049 0.587289 4.43343C0.601323 4.74128 0.652718 4.90846 0.696047 5.01969C0.74663 5.15684 0.827311 5.2809 0.932154 5.3828C1.03403 5.48762 1.15811 5.56831 1.29526 5.61889C1.40648 5.66223 1.57365 5.71361 1.8815 5.72765C2.21444 5.74275 2.31425 5.74608 3.15747 5.74608C4.00069 5.74608 4.10049 5.74275 4.43343 5.72765C4.74128 5.71361 4.90846 5.66223 5.01969 5.61889C5.16703 5.56171 5.27228 5.49331 5.3828 5.3828C5.48762 5.28092 5.56831 5.15684 5.61889 5.01969C5.66223 4.90846 5.71361 4.74128 5.72765 4.43343C5.74275 4.10049 5.74608 4.00051 5.74608 3.15747C5.74608 2.31442 5.74275 2.21444 5.72765 1.8815C5.71361 1.57365 5.66223 1.40648 5.61889 1.29526C5.56171 1.14792 5.49331 1.04267 5.3828 0.932154C5.27228 0.82182 5.16703 0.753231 5.01969 0.696047C4.90846 0.652718 4.74128 0.601323 4.43343 0.587289ZM2.75432 4.1308C2.88214 4.18376 3.01911 4.211 3.15747 4.211C3.43691 4.211 3.70486 4.1 3.90243 3.90243C4.10003 3.70486 4.21103 3.43688 4.21103 3.15747C4.21103 2.87806 4.10003 2.61008 3.90243 2.4125C3.70486 2.21492 3.43691 2.10393 3.15747 2.10393C3.01911 2.10393 2.88214 2.13118 2.75432 2.18412C2.62647 2.23707 2.51034 2.31467 2.41251 2.4125C2.31468 2.51033 2.23708 2.62647 2.18413 2.75429C2.13119 2.88211 2.10394 3.01911 2.10394 3.15747C2.10394 3.29582 2.13119 3.43283 2.18413 3.56065C2.23708 3.68847 2.31468 3.80461 2.41251 3.90243C2.51034 4.00025 2.62647 4.07787 2.75432 4.1308ZM2.00989 2.00988C2.31425 1.70552 2.72705 1.53453 3.15747 1.53453C3.58792 1.53453 4.00071 1.70552 4.30507 2.00988C4.60942 2.31424 4.78041 2.72705 4.78041 3.15747C4.78041 3.58789 4.60942 4.00069 4.30507 4.30507C4.00071 4.60942 3.58792 4.78041 3.15747 4.78041C2.72705 4.78041 2.31425 4.60942 2.00989 4.30507C1.70553 4.00069 1.53454 3.58789 1.53454 3.15747C1.53454 2.72705 1.70553 2.31424 2.00989 2.00988ZM5.14027 1.77633C5.21221 1.70438 5.25262 1.6068 5.25262 1.50506C5.25262 1.40331 5.21221 1.30573 5.14027 1.23379C5.06831 1.16185 4.97075 1.12143 4.86899 1.12143C4.76726 1.12143 4.66967 1.16185 4.59773 1.23379C4.52577 1.30573 4.48536 1.40331 4.48536 1.50506C4.48536 1.6068 4.52577 1.70438 4.59773 1.77633C4.66967 1.84827 4.76726 1.88869 4.86899 1.88869C4.97075 1.88869 5.06831 1.84827 5.14027 1.77633Z" fill="black"/>
</svg>
