<svg width="7" height="7" viewBox="0 0 7 7" fill="none" xmlns="http://www.w3.org/2000/svg">
<path d="M3.7195 2.35547C3.70374 2.35547 3.68814 2.35858 3.67358 2.36461C3.65903 2.37064 3.6458 2.37947 3.63466 2.39061C3.62352 2.40176 3.61468 2.41498 3.60865 2.42954C3.60262 2.4441 3.59951 2.4597 3.59951 2.47546V3.00275L3.15747 2.41546C3.14646 2.39759 3.13116 2.38275 3.11297 2.37227C3.09478 2.3618 3.07426 2.35602 3.05327 2.35547C3.02145 2.35547 2.99093 2.36811 2.96843 2.39061C2.94593 2.41312 2.93329 2.44363 2.93329 2.47546V3.37218C2.93329 3.404 2.94593 3.43452 2.96843 3.45702C2.99093 3.47952 3.02145 3.49216 3.05327 3.49216C3.08509 3.49216 3.11561 3.47952 3.13811 3.45702C3.16062 3.43452 3.17326 3.404 3.17326 3.37218V2.84172L3.61214 3.4448C3.62332 3.46162 3.6401 3.47393 3.65951 3.47953C3.67406 3.48279 3.68916 3.48279 3.70371 3.47953C3.71756 3.48457 3.73232 3.48661 3.74701 3.48552C3.76171 3.48443 3.77601 3.48024 3.78896 3.47322L3.82054 3.45111C3.8427 3.42826 3.85515 3.3977 3.85527 3.36586V2.47546C3.85542 2.45828 3.85188 2.44127 3.84489 2.42558C3.8379 2.40989 3.82762 2.39588 3.81474 2.3845C3.80187 2.37313 3.78671 2.36465 3.77028 2.35964C3.75384 2.35463 3.73653 2.35321 3.7195 2.35547ZM2.27338 3.24272H1.93869V2.47546C1.93869 2.4597 1.93558 2.4441 1.92955 2.42954C1.92352 2.41498 1.91469 2.40176 1.90354 2.39061C1.8924 2.37947 1.87918 2.37064 1.86462 2.36461C1.85006 2.35858 1.83446 2.35547 1.8187 2.35547C1.80295 2.35547 1.78734 2.35858 1.77279 2.36461C1.75823 2.37064 1.745 2.37947 1.73386 2.39061C1.72272 2.40176 1.71388 2.41498 1.70785 2.42954C1.70182 2.4441 1.69872 2.4597 1.69872 2.47546V3.37218C1.69872 3.38793 1.70182 3.40354 1.70785 3.41809C1.71388 3.43265 1.72272 3.44588 1.73386 3.45702C1.745 3.46816 1.75823 3.477 1.77279 3.48303C1.78734 3.48906 1.80295 3.49216 1.8187 3.49216H2.27338C2.3055 3.49217 2.33635 3.47963 2.35935 3.45722C2.38236 3.4348 2.3957 3.40429 2.39652 3.37218C2.39738 3.35548 2.39483 3.33879 2.38902 3.32311C2.38322 3.30743 2.37428 3.2931 2.36276 3.28099C2.35124 3.26888 2.33738 3.25924 2.32201 3.25266C2.30664 3.24608 2.29009 3.2427 2.27338 3.24272ZM2.62386 2.35547C2.59174 2.35546 2.56089 2.368 2.53788 2.39042C2.51488 2.41283 2.50154 2.44335 2.50072 2.47546V3.37218C2.50154 3.40429 2.51488 3.4348 2.53788 3.45722C2.56089 3.47963 2.59174 3.49217 2.62386 3.49216C2.63961 3.49216 2.65522 3.48906 2.66977 3.48303C2.68433 3.477 2.69756 3.46816 2.7087 3.45702C2.71984 3.44588 2.72868 3.43265 2.73471 3.41809C2.74074 3.40354 2.74384 3.38793 2.74384 3.37218V2.47546C2.74384 2.4597 2.74074 2.4441 2.73471 2.42954C2.72868 2.41498 2.71984 2.40176 2.7087 2.39061C2.69756 2.37947 2.68433 2.37064 2.66977 2.36461C2.65522 2.35858 2.63961 2.35547 2.62386 2.35547ZM5.02353 0H1.29141C0.949159 0.000833732 0.62117 0.13716 0.379165 0.379165C0.13716 0.62117 0.000833732 0.949159 0 1.29141V5.02353C0.000833732 5.36578 0.13716 5.69377 0.379165 5.93577C0.62117 6.17778 0.949159 6.3141 1.29141 6.31494H5.02353C5.36578 6.3141 5.69377 6.17778 5.93577 5.93577C6.17778 5.69377 6.3141 5.36578 6.31494 5.02353V1.29141C6.3141 0.949159 6.17778 0.62117 5.93577 0.379165C5.69377 0.13716 5.36578 0.000833732 5.02353 0ZM5.12142 3.87737C5.10899 3.89619 5.09527 3.91412 5.08037 3.93105C5.00508 4.02371 4.92043 4.10835 4.82777 4.18365C4.19628 4.77409 3.13537 5.48137 2.99328 5.37086C2.85119 5.26034 3.19536 4.81514 2.82593 4.73936C2.79973 4.74266 2.77321 4.74266 2.747 4.73936C1.66083 4.5878 0.852517 3.82685 0.852517 2.91434C0.852517 1.88817 1.89132 1.05775 3.1701 1.05775C4.44887 1.05775 5.48768 1.88817 5.48768 2.91434C5.47673 3.26728 5.34777 3.60636 5.12142 3.87737ZM4.58149 2.35863H4.10471C4.08895 2.35863 4.07335 2.36173 4.05879 2.36776C4.04424 2.37379 4.03101 2.38263 4.01987 2.39377C4.00873 2.40491 3.99989 2.41814 3.99386 2.4327C3.98783 2.44725 3.98473 2.46286 3.98473 2.47861V3.37533C3.98473 3.39109 3.98783 3.40669 3.99386 3.42125C3.99989 3.43581 4.00873 3.44903 4.01987 3.46018C4.03101 3.47132 4.04424 3.48016 4.05879 3.48619C4.07335 3.49221 4.08895 3.49532 4.10471 3.49532H4.57202C4.60384 3.49532 4.63436 3.48268 4.65686 3.46018C4.67936 3.43767 4.692 3.40716 4.692 3.37533C4.692 3.34351 4.67936 3.31299 4.65686 3.29049C4.63436 3.26799 4.60384 3.25535 4.57202 3.25535H4.2468V3.0659H4.58149C4.6136 3.06508 4.64411 3.05174 4.66653 3.02874C4.68894 3.00573 4.70148 2.97488 4.70147 2.94276C4.70147 2.91094 4.68883 2.88042 4.66633 2.85792C4.64383 2.83542 4.61331 2.82278 4.58149 2.82278H4.2468V2.63017H4.58149C4.61331 2.63017 4.64383 2.61753 4.66633 2.59503C4.68883 2.57253 4.70147 2.54201 4.70147 2.51019C4.70643 2.49204 4.70706 2.47298 4.7033 2.45454C4.69953 2.43611 4.69149 2.41882 4.67981 2.40406C4.66813 2.38931 4.65315 2.37751 4.63607 2.36962C4.61899 2.36173 4.60029 2.35796 4.58149 2.35863Z" fill="black"/>
</svg>
