<svg width="7" height="7" viewBox="0 0 7 7" fill="none" xmlns="http://www.w3.org/2000/svg">
<path d="M5.36911 0.917639C4.77849 0.325614 3.99194 0 3.15606 0C1.43073 0 0.0267821 1.40395 0.0267821 3.12928C0.0267821 3.68043 0.17056 4.21889 0.444019 4.69392L0 6.31494L1.65908 5.87938C2.11579 6.12887 2.63028 6.25996 3.15465 6.25996H3.15606C4.87998 6.25996 6.31494 4.85602 6.31494 3.13069C6.31494 2.2948 5.95972 1.50966 5.36911 0.917639ZM3.15606 5.73278C2.68808 5.73278 2.22996 5.60733 1.83105 5.37052L1.73661 5.31413L0.752718 5.57209L1.0149 4.61216L0.952879 4.51349C0.692106 4.09907 0.555376 3.62122 0.555376 3.12928C0.555376 1.69573 1.72251 0.528594 3.15747 0.528594C3.85239 0.528594 4.50503 0.799234 4.99557 1.29118C5.4861 1.78312 5.78775 2.43576 5.78634 3.13069C5.78634 4.56564 4.58961 5.73278 3.15606 5.73278ZM4.58256 3.78473C4.50503 3.74527 4.12022 3.55638 4.04833 3.53101C3.97644 3.50423 3.92428 3.49154 3.87213 3.57048C3.81997 3.64941 3.67056 3.8242 3.62404 3.87777C3.57894 3.92992 3.53242 3.93697 3.45489 3.8975C2.99537 3.66774 2.69372 3.48731 2.39066 2.96718C2.31031 2.82904 2.471 2.8389 2.62042 2.54007C2.64579 2.48792 2.6331 2.44281 2.61337 2.40334C2.59364 2.36387 2.43717 1.97906 2.37233 1.82259C2.3089 1.67036 2.24406 1.6915 2.19613 1.68868C2.15103 1.68586 2.09887 1.68586 2.04672 1.68586C1.99456 1.68586 1.90999 1.7056 1.8381 1.78312C1.76621 1.86206 1.56464 2.05095 1.56464 2.43576C1.56464 2.82058 1.84515 3.19271 1.8832 3.24486C1.92267 3.29702 2.43435 4.08639 3.21949 4.4261C3.71566 4.64035 3.91019 4.65868 4.15827 4.62203C4.3091 4.59947 4.62062 4.43314 4.68546 4.2499C4.7503 4.06665 4.7503 3.91019 4.73057 3.87777C4.71224 3.84253 4.66009 3.82279 4.58256 3.78473Z" fill="black"/>
</svg>
